<?xml version="1.0" encoding="UTF-8" standalone="no"?>
<!-- Created with Inkscape (http://www.inkscape.org/) -->

<svg
   xmlns:dc="http://purl.org/dc/elements/1.1/"
   xmlns:cc="http://creativecommons.org/ns#"
   xmlns:rdf="http://www.w3.org/1999/02/22-rdf-syntax-ns#"
   xmlns:svg="http://www.w3.org/2000/svg"
   xmlns="http://www.w3.org/2000/svg"
   xmlns:xlink="http://www.w3.org/1999/xlink"
   xmlns:sodipodi="http://sodipodi.sourceforge.net/DTD/sodipodi-0.dtd"
   xmlns:inkscape="http://www.inkscape.org/namespaces/inkscape"
   width="64px"
   height="64px"
   id="svg2985"
   version="1.1"
   inkscape:version="0.48.4 r9939"
   sodipodi:docname="chemis-logo.svg">
  <defs
     id="defs2987">
    <linearGradient
       inkscape:collect="always"
       id="linearGradient3973">
      <stop
         style="stop-color:#800080;stop-opacity:1;"
         offset="0"
         id="stop3975" />
      <stop
         style="stop-color:#800080;stop-opacity:0;"
         offset="1"
         id="stop3977" />
    </linearGradient>
    <linearGradient
       id="linearGradient3917">
      <stop
         style="stop-color:#800080;stop-opacity:1;"
         offset="0"
         id="stop3919" />
      <stop
         style="stop-color:#800080;stop-opacity:0;"
         offset="1"
         id="stop3921" />
    </linearGradient>
    <linearGradient
       inkscape:collect="always"
       xlink:href="#linearGradient3917"
       id="linearGradient3923"
       x1="23.655935"
       y1="26.716187"
       x2="41.140759"
       y2="26.587624"
       gradientUnits="userSpaceOnUse" />
    <linearGradient
       inkscape:collect="always"
       xlink:href="#linearGradient3917"
       id="linearGradient3947"
       gradientUnits="userSpaceOnUse"
       x1="34.455383"
       y1="35.844296"
       x2="16.841999"
       y2="33.658691" />
    <linearGradient
       inkscape:collect="always"
       xlink:href="#linearGradient3973"
       id="linearGradient3979"
       x1="38.602871"
       y1="41.993347"
       x2="-8.9075232"
       y2="41.425835"
       gradientUnits="userSpaceOnUse" />
  </defs>
  <sodipodi:namedview
     id="base"
     pagecolor="#ffffff"
     bordercolor="#666666"
     borderopacity="1.0"
     inkscape:pageopacity="0.0"
     inkscape:pageshadow="2"
     inkscape:zoom="5.5"
     inkscape:cx="37.52567"
     inkscape:cy="25.063132"
     inkscape:current-layer="g3073"
     showgrid="true"
     inkscape:document-units="px"
     inkscape:grid-bbox="true"
     inkscape:window-width="1317"
     inkscape:window-height="744"
     inkscape:window-x="49"
     inkscape:window-y="24"
     inkscape:window-maximized="1" />
  <metadata
     id="metadata2990">
    <rdf:RDF>
      <cc:Work
         rdf:about="">
        <dc:format>image/svg+xml</dc:format>
        <dc:type
           rdf:resource="http://purl.org/dc/dcmitype/StillImage" />
        <dc:title />
      </cc:Work>
    </rdf:RDF>
  </metadata>
  <g
     inkscape:groupmode="layer"
     id="layer3"
     inkscape:label="Bubles"
     style="display:inline">
    <path
       sodipodi:type="arc"
       style="fill:#800080;fill-opacity:1;stroke:none"
       id="path3875"
       sodipodi:cx="34.454544"
       sodipodi:cy="28.772728"
       sodipodi:rx="2.2727273"
       sodipodi:ry="2.3181818"
       d="m 36.727271,28.772728 a 2.2727273,2.3181818 0 1 1 -4.545454,0 2.2727273,2.3181818 0 1 1 4.545454,0 z" />
    <path
       sodipodi:type="arc"
       style="fill:#800080;fill-opacity:1;stroke:none"
       id="path3877"
       sodipodi:cx="30.09091"
       sodipodi:cy="22.363636"
       sodipodi:rx="2"
       sodipodi:ry="2"
       d="m 32.09091,22.363636 a 2,2 0 1 1 -4,0 2,2 0 1 1 4,0 z"
       transform="translate(-0.18181818,1.0909091)" />
    <path
       sodipodi:type="arc"
       style="fill:#800080;fill-opacity:1;stroke:none"
       id="path3879"
       sodipodi:cx="34.045456"
       sodipodi:cy="16.227272"
       sodipodi:rx="1.5909091"
       sodipodi:ry="1.5"
       d="m 35.636365,16.227272 a 1.5909091,1.5 0 1 1 -3.181818,0 1.5909091,1.5 0 1 1 3.181818,0 z"
       transform="translate(0.63636364,2.6363636)" />
    <path
       sodipodi:type="arc"
       style="fill:#800080;fill-opacity:1;stroke:none"
       id="path3881"
       sodipodi:cx="30.363636"
       sodipodi:cy="10.954545"
       sodipodi:rx="2"
       sodipodi:ry="1.9545455"
       d="m 32.363636,10.954545 a 2,1.9545455 0 1 1 -4,0 2,1.9545455 0 1 1 4,0 z"
       transform="translate(-1,-0.18181818)" />
    <path
       sodipodi:type="arc"
       style="fill:#800080;fill-opacity:1;stroke:none"
       id="path3883"
       sodipodi:cx="35.772728"
       sodipodi:cy="6.181818"
       sodipodi:rx="1.6818181"
       sodipodi:ry="1.6363636"
       d="m 37.454546,6.181818 a 1.6818181,1.6363636 0 1 1 -3.363636,0 1.6818181,1.6363636 0 1 1 3.363636,0 z"
       transform="translate(-1,0.54545455)" />
    <path
       sodipodi:type="arc"
       style="fill:#800080;fill-opacity:1;stroke:none"
       id="path3885"
       sodipodi:cx="29.272728"
       sodipodi:cy="5.590909"
       sodipodi:rx="1.5454545"
       sodipodi:ry="1.5"
       d="m 30.818182,5.590909 a 1.5454545,1.5 0 1 1 -3.090909,0 1.5454545,1.5 0 1 1 3.090909,0 z"
       transform="translate(-0.54545455,-0.36363636)" />
    <path
       sodipodi:type="arc"
       style="fill:#800080;fill-opacity:1;stroke:none"
       id="path3887"
       sodipodi:cx="35.409092"
       sodipodi:cy="2.7272727"
       sodipodi:rx="1.7727273"
       sodipodi:ry="1.6363636"
       d="m 37.181819,2.7272727 a 1.7727273,1.6363636 0 1 1 -3.545454,0 1.7727273,1.6363636 0 1 1 3.545454,0 z"
       transform="matrix(0.92307692,0,0,1,-1.0489509,12.727273)" />
  </g>
  <g
     inkscape:groupmode="layer"
     inkscape:label="Content"
     id="g3073"
     style="display:inline">
    <path
       sodipodi:nodetypes="ccccc"
       inkscape:connector-curvature="0"
       id="path3075"
       d="m 7,57 c 3.157084,4.755792 47.206877,4.99677 50,0 C 61.090909,54.772727 41.636364,28.636364 41.636364,28.636364 33.019738,34.63637 28.194824,25.246939 21.818182,29.454545 21.818182,29.454545 2.5649514,55.194577 7,57 z"
       style="fill:#800080;fill-opacity:0;stroke:#000000;stroke-width:1.27570605px;stroke-linecap:butt;stroke-linejoin:miter;stroke-opacity:1" />
    <path
       style="fill:url(#linearGradient3979);fill-opacity:1;stroke:none"
       d="m 25.119395,59.799832 c -8.30652,-0.40523 -14.315493,-1.328747 -16.6363641,-2.556835 -0.325,-0.171973 -0.775,-0.479146 -1,-0.682605 L 7.07394,56.190465 7.082,55.541595 c 0.03564,-2.870461 5.212674,-11.734662 13.748919,-23.541122 1.358663,-1.879163 1.542866,-2.096003 1.96017,-2.307467 0.821316,-0.416192 1.437931,-0.584565 2.333948,-0.637306 1.147291,-0.06753 2.179778,0.153714 4.569284,0.979121 2.861685,0.988511 3.835387,1.220196 5.543831,1.31911 1.899943,0.110002 3.923489,-0.415998 5.758394,-1.496833 l 0.468055,-0.275704 1.357661,1.882938 c 8.423921,11.683133 13.785582,20.878369 13.999785,24.009599 l 0.04731,0.691522 -0.443209,0.464517 c -0.504642,0.528902 -1.235715,0.928506 -2.386988,1.304725 -2.872075,0.93855 -8.2741,1.614465 -15.283393,1.912296 -2.849637,0.121084 -10.747565,0.09377 -13.636363,-0.04716 l 0,0 z"
       id="path3915"
       inkscape:connector-curvature="0" />
  </g>
  <g
     id="layer1"
     inkscape:label="Base"
     inkscape:groupmode="layer"
     style="display:inline">
    <path
       style="fill:none;stroke:#000000;stroke-width:1.27570605px;stroke-linecap:butt;stroke-linejoin:miter;stroke-opacity:1"
       d="m 7,57 c 3.157084,4.755792 47.206877,4.99677 50,0 C 61.090909,54.772727 40,26 40,26 36.090909,20.045454 40,8 40,8 40,8 41.863636,7.0909091 42,4 38,2.3181818 26,2.4545455 22,4 c 0.04546,3.3636364 2,4 2,4 0,0 4.045455,12.090909 0,18 0,0 -21.4350486,29.194577 -17,31 z"
       id="path2993"
       inkscape:connector-curvature="0"
       sodipodi:nodetypes="ccccccccc" />
    <path
       style="fill:none;stroke:#000000;stroke-width:1px;stroke-linecap:butt;stroke-linejoin:miter;stroke-opacity:1"
       d="M 24.170195,7.6885873 C 25.198714,6.6600683 32.269782,6.2743737 34.06969,6.917198"
       id="path3963"
       inkscape:connector-curvature="0"
       sodipodi:nodetypes="cc" />
  </g>
</svg>
