<?xml version="1.0" encoding="UTF-8" standalone="no"?>
<!-- Created with Inkscape (http://www.inkscape.org/) -->

<svg
   xmlns:dc="http://purl.org/dc/elements/1.1/"
   xmlns:cc="http://creativecommons.org/ns#"
   xmlns:rdf="http://www.w3.org/1999/02/22-rdf-syntax-ns#"
   xmlns:svg="http://www.w3.org/2000/svg"
   xmlns="http://www.w3.org/2000/svg"
   xmlns:xlink="http://www.w3.org/1999/xlink"
   xmlns:sodipodi="http://sodipodi.sourceforge.net/DTD/sodipodi-0.dtd"
   xmlns:inkscape="http://www.inkscape.org/namespaces/inkscape"
   width="128"
   height="128"
   id="svg2985"
   version="1.1"
   inkscape:version="0.48.4 r9939"
   sodipodi:docname="chemis-logo.svg">
  <defs
     id="defs2987">
    <linearGradient
       inkscape:collect="always"
       id="linearGradient3973">
      <stop
         style="stop-color:#800080;stop-opacity:1;"
         offset="0"
         id="stop3975" />
      <stop
         style="stop-color:#800080;stop-opacity:0;"
         offset="1"
         id="stop3977" />
    </linearGradient>
    <linearGradient
       id="linearGradient3917">
      <stop
         style="stop-color:#800080;stop-opacity:1;"
         offset="0"
         id="stop3919" />
      <stop
         style="stop-color:#800080;stop-opacity:0;"
         offset="1"
         id="stop3921" />
    </linearGradient>
    <linearGradient
       inkscape:collect="always"
       xlink:href="#linearGradient3917"
       id="linearGradient3923"
       x1="23.655935"
       y1="26.716187"
       x2="41.140759"
       y2="26.587624"
       gradientUnits="userSpaceOnUse" />
    <linearGradient
       inkscape:collect="always"
       xlink:href="#linearGradient3917"
       id="linearGradient3947"
       gradientUnits="userSpaceOnUse"
       x1="34.455383"
       y1="35.844296"
       x2="16.841999"
       y2="33.658691" />
    <linearGradient
       inkscape:collect="always"
       xlink:href="#linearGradient3973"
       id="linearGradient3979"
       x1="38.602871"
       y1="41.993347"
       x2="-8.9075232"
       y2="41.425835"
       gradientUnits="userSpaceOnUse"
       gradientTransform="matrix(1.9462132,0,0,1.9325243,1.5463039,-62.416809)" />
  </defs>
  <sodipodi:namedview
     id="base"
     pagecolor="#ffffff"
     bordercolor="#666666"
     borderopacity="1.0"
     inkscape:pageopacity="0.0"
     inkscape:pageshadow="2"
     inkscape:zoom="3.8890873"
     inkscape:cx="49.694658"
     inkscape:cy="58.911604"
     inkscape:current-layer="layer1"
     showgrid="true"
     inkscape:document-units="px"
     inkscape:grid-bbox="true"
     inkscape:window-width="1317"
     inkscape:window-height="744"
     inkscape:window-x="49"
     inkscape:window-y="24"
     inkscape:window-maximized="1" />
  <metadata
     id="metadata2990">
    <rdf:RDF>
      <cc:Work
         rdf:about="">
        <dc:format>image/svg+xml</dc:format>
        <dc:type
           rdf:resource="http://purl.org/dc/dcmitype/StillImage" />
        <dc:title></dc:title>
      </cc:Work>
    </rdf:RDF>
  </metadata>
  <g
     inkscape:groupmode="layer"
     id="layer3"
     inkscape:label="Bubles"
     style="display:inline"
     transform="translate(0,64)">
    <path
       sodipodi:type="arc"
       style="fill:#800080;fill-opacity:1;stroke:none"
       id="path3875"
       sodipodi:cx="34.454544"
       sodipodi:cy="28.772728"
       sodipodi:rx="2.2727273"
       sodipodi:ry="2.3181818"
       d="m 36.727271,28.772728 a 2.2727273,2.3181818 0 1 1 -4.545454,0 2.2727273,2.3181818 0 1 1 4.545454,0 z"
       transform="matrix(1.90449,0,0,1.90449,3.2265345,-60.736896)" />
    <path
       sodipodi:type="arc"
       style="fill:#800080;fill-opacity:1;stroke:none"
       id="path3877"
       sodipodi:cx="30.09091"
       sodipodi:cy="22.363636"
       sodipodi:rx="2"
       sodipodi:ry="2"
       d="m 32.09091,22.363636 a 2,2 0 1 1 -4,0 2,2 0 1 1 4,0 z"
       transform="matrix(1.90449,0,0,1.90449,2.8802639,-58.659273)" />
    <path
       sodipodi:type="arc"
       style="fill:#800080;fill-opacity:1;stroke:none"
       id="path3879"
       sodipodi:cx="34.045456"
       sodipodi:cy="16.227272"
       sodipodi:rx="1.5909091"
       sodipodi:ry="1.5"
       d="m 35.636365,16.227272 a 1.5909091,1.5 0 1 1 -3.181818,0 1.5909091,1.5 0 1 1 3.181818,0 z"
       transform="matrix(1.90449,0,0,1.90449,4.4384834,-55.715971)" />
    <path
       sodipodi:type="arc"
       style="fill:#800080;fill-opacity:1;stroke:none"
       id="path3881"
       sodipodi:cx="30.363636"
       sodipodi:cy="10.954545"
       sodipodi:rx="2"
       sodipodi:ry="1.9545455"
       d="m 32.363636,10.954545 a 2,1.9545455 0 1 1 -4,0 2,1.9545455 0 1 1 4,0 z"
       transform="matrix(1.90449,0,0,1.90449,1.3220445,-61.083168)" />
    <path
       sodipodi:type="arc"
       style="fill:#800080;fill-opacity:1;stroke:none"
       id="path3883"
       sodipodi:cx="35.772728"
       sodipodi:cy="6.181818"
       sodipodi:rx="1.6818181"
       sodipodi:ry="1.6363636"
       d="m 37.454546,6.181818 a 1.6818181,1.6363636 0 1 1 -3.363636,0 1.6818181,1.6363636 0 1 1 3.363636,0 z"
       transform="matrix(1.90449,0,0,1.90449,1.3220445,-59.698085)" />
    <path
       sodipodi:type="arc"
       style="fill:#800080;fill-opacity:1;stroke:none"
       id="path3885"
       sodipodi:cx="29.272728"
       sodipodi:cy="5.590909"
       sodipodi:rx="1.5454545"
       sodipodi:ry="1.5"
       d="m 30.818182,5.590909 a 1.5454545,1.5 0 1 1 -3.090909,0 1.5454545,1.5 0 1 1 3.090909,0 z"
       transform="matrix(1.90449,0,0,1.90449,2.187721,-61.429439)" />
    <path
       sodipodi:type="arc"
       style="fill:#800080;fill-opacity:1;stroke:none"
       id="path3887"
       sodipodi:cx="35.409092"
       sodipodi:cy="2.7272727"
       sodipodi:rx="1.7727273"
       sodipodi:ry="1.6363636"
       d="m 37.181819,2.7272727 a 1.7727273,1.6363636 0 1 1 -3.545454,0 1.7727273,1.6363636 0 1 1 3.545454,0 z"
       transform="matrix(1.7579906,0,0,1.90449,1.2288179,-36.497933)" />
  </g>
  <g
     inkscape:groupmode="layer"
     inkscape:label="Content"
     id="g3073"
     style="display:inline"
     transform="translate(0,64)">
    <path
       style="fill:url(#linearGradient3979);fill-opacity:1;stroke:none"
       d="M 50.434004,53.147812 C 34.26774,52.364697 22.572991,50.579976 18.056093,48.206667 17.423575,47.874325 16.547775,47.280704 16.109876,46.887514 l -0.796172,-0.714891 0.01524,-1.253958 c 0.06931,-5.547233 10.14497,-22.67752 26.758311,-45.49378631 2.644252,-3.63152699 3.002753,-4.05057599 3.814923,-4.45923509 1.598457,-0.8043029 2.798515,-1.129685 4.54236,-1.2316069 2.232863,-0.130496 4.24231,0.297054 8.892789,1.892173 5.569452,1.910322 7.464496,2.3580559 10.789487,2.5492129 3.697701,0.2125811 7.635939,-0.803929 11.207066,-2.892668 l 0.910918,-0.5328039 2.642308,3.638823 C 101.2823,20.96671 111.71723,38.736727 112.13413,44.787905 l 0.0921,1.336382 -0.86257,0.897689 c -0.98215,1.022116 -2.40497,1.794362 -4.64559,2.521416 -5.58968,1.813769 -16.103166,3.11999 -29.744741,3.695557 -5.546008,0.233997 -20.917051,0.181231 -26.539277,-0.09112 l 0,0 z"
       id="path3915"
       inkscape:connector-curvature="0" />
  </g>
  <g
     inkscape:groupmode="layer"
     id="layer2"
     inkscape:label="SubBorder"
     transform="translate(0,64)">
    <path
       sodipodi:nodetypes="ccccc"
       inkscape:connector-curvature="0"
       id="path3075"
       d="m 16.47828,47.398561 c 6.012647,9.057359 89.90503,9.516299 95.2245,0 C 119.49388,43.156743 82.4429,-6.6196973 82.4429,-6.6196973 66.032613,4.8072536 56.843622,-13.074824 44.699375,-5.0614804 c 0,0 -36.6675921,49.0216324 -28.221095,52.4600414 z"
       style="fill:#800080;fill-opacity:0;stroke:#000000;stroke-width:2.42956924px;stroke-linecap:butt;stroke-linejoin:miter;stroke-opacity:1;display:inline" />
  </g>
  <g
     id="layer1"
     inkscape:label="Base"
     inkscape:groupmode="layer"
     style="display:inline"
     transform="translate(0,64)">
    <path
       style="fill:none;stroke:#000000;stroke-width:2.42956924px;stroke-linecap:butt;stroke-linejoin:miter;stroke-opacity:1"
       d="m 16.557964,47.819031 c 6.012627,9.057358 89.905026,9.516299 95.224496,0 7.79111,-4.241819 -32.376328,-59.039188 -32.376328,-59.039188 -7.444821,-11.340374 0,-34.280821 0,-34.280821 0,0 3.549285,-1.731353 3.808982,-7.617959 -7.617961,-3.203005 -30.47184,-2.943303 -38.0898,0 0.08665,6.406012 3.80898,7.617959 3.80898,7.617959 0,0 7.704519,23.027016 0,34.280821 0,0 -40.8228361,55.600778 -32.37633,59.039188 z"
       id="path2993"
       inkscape:connector-curvature="0"
       sodipodi:nodetypes="ccccccccc" />
    <path
       style="fill:none;stroke:#000000;stroke-width:1.90448999px;stroke-linecap:butt;stroke-linejoin:miter;stroke-opacity:1"
       d="m 49.258419,-46.09406 c 1.958806,-1.958804 15.425588,-2.693355 18.853498,-1.469103"
       id="path3963"
       inkscape:connector-curvature="0"
       sodipodi:nodetypes="cc" />
  </g>
</svg>
