<?xml version="1.0" encoding="UTF-8" standalone="no"?>
<!-- Created with Inkscape (http://www.inkscape.org/) -->

<svg
   xmlns:osb="http://www.openswatchbook.org/uri/2009/osb"
   xmlns:dc="http://purl.org/dc/elements/1.1/"
   xmlns:cc="http://creativecommons.org/ns#"
   xmlns:rdf="http://www.w3.org/1999/02/22-rdf-syntax-ns#"
   xmlns:svg="http://www.w3.org/2000/svg"
   xmlns="http://www.w3.org/2000/svg"
   xmlns:sodipodi="http://sodipodi.sourceforge.net/DTD/sodipodi-0.dtd"
   xmlns:inkscape="http://www.inkscape.org/namespaces/inkscape"
   width="64px"
   height="64px"
   id="svg2985"
   version="1.1"
   inkscape:version="0.48.4 r9939"
   sodipodi:docname="dixon-icon.svg">
  <defs
     id="defs2987">
    <linearGradient
       id="linearGradient3812"
       osb:paint="gradient">
      <stop
         style="stop-color:#5a2222;stop-opacity:0"
         offset="0"
         id="stop3814" />
      <stop
         style="stop-color:#5a2222;stop-opacity:0"
         offset="1"
         id="stop3816" />
    </linearGradient>
    <linearGradient
       id="linearGradient3011">
      <stop
         style="stop-color:#5a2222;stop-opacity:1"
         offset="0"
         id="stop3013" />
      <stop
         id="stop3810"
         offset="0.25"
         style="stop-color:#582e2e;stop-opacity:0.74901961;" />
      <stop
         id="stop3787"
         offset="0.5"
         style="stop-color:#573b3b;stop-opacity:0.49803922;" />
      <stop
         style="stop-color:#555555;stop-opacity:0;"
         offset="1"
         id="stop3015" />
    </linearGradient>
  </defs>
  <sodipodi:namedview
     id="base"
     pagecolor="#ffffff"
     bordercolor="#666666"
     borderopacity="1.0"
     inkscape:pageopacity="0"
     inkscape:pageshadow="2"
     inkscape:zoom="5.5"
     inkscape:cx="24.254871"
     inkscape:cy="34.866595"
     inkscape:current-layer="layer1"
     showgrid="true"
     inkscape:document-units="px"
     inkscape:grid-bbox="true"
     inkscape:window-width="1317"
     inkscape:window-height="744"
     inkscape:window-x="49"
     inkscape:window-y="24"
     inkscape:window-maximized="1" />
  <metadata
     id="metadata2990">
    <rdf:RDF>
      <cc:Work
         rdf:about="">
        <dc:format>image/svg+xml</dc:format>
        <dc:type
           rdf:resource="http://purl.org/dc/dcmitype/StillImage" />
        <dc:title></dc:title>
      </cc:Work>
    </rdf:RDF>
  </metadata>
  <g
     id="layer1"
     inkscape:label="Layer 1"
     inkscape:groupmode="layer"
     style="display:inline;opacity:1">
    <g
       transform="matrix(1.1344078,0,0,1.0826721,-11.871157,-10.619746)"
       style="font-size:10px;font-style:normal;font-weight:normal;line-height:125%;letter-spacing:0px;word-spacing:0px;fill:#000000;fill-opacity:1;stroke:none;font-family:Sans"
       id="flowRoot2993">
      <path
         d="m 46.84725,36.142141 c 0,-9.45599 -3.45601,-16.224 -13.824,-16.224 -10.46399,0 -14.064,7.056009 -14.064,16.224 0,9.263991 3.264011,16.272 14.016,16.272 10.31999,0 13.872,-7.056009 13.872,-16.272 m -3.264,18.336 -10.512,-0.96 -1.68,2.736 10.512,1.584 1.68,-3.36 m -1.68,-18.336 c 0,7.823992 -2.208007,12.576 -8.928,12.576 -6.575993,0 -9.072,-4.176008 -9.072,-12.576 0,-8.207992 2.544007,-12.528 9.072,-12.528 6.479994,0 8.928,4.272008 8.928,12.528"
         style="font-size:48px;font-variant:normal;font-stretch:normal;text-align:center;text-anchor:middle;font-family:Colaborate-Regular;-inkscape-font-specification:Colaborate-Regular"
         id="path3971" />
    </g>
    <g
       transform="matrix(1.2915906,0,0,1.2915906,-9.4597239,-21.41222)"
       style="font-size:16px;font-style:normal;font-weight:normal;line-height:125%;letter-spacing:0px;word-spacing:0px;fill:#000000;fill-opacity:1;stroke:none;font-family:Sans"
       id="flowRoot3001">
      <path
         d="m 47.40675,56.596928 0,-5.184 c 0,-1.889998 -0.612002,-3.276 -2.916,-3.276 -1.223999,0 -1.926,1.008 -2.25,1.386 l -0.288,-1.152 -1.458,0 c 0.054,0.611999 0.198,1.062001 0.198,1.746 l 0,6.48 1.602,0 0,-5.562 c 0.342,-0.755999 1.008001,-1.638 1.962,-1.638 1.403999,0 1.548,0.954001 1.548,1.998 l 0,5.202 1.602,0"
         style="font-size:18px;font-variant:normal;font-stretch:normal;font-family:Colaborate-Regular;-inkscape-font-specification:Colaborate-Regular"
         id="path3974" />
    </g>
  </g>
</svg>
